<svg width="119" height="78" viewBox="0 0 119 78" fill="none" xmlns="http://www.w3.org/2000/svg">
<path d="M8.22656 15.7656C8.22656 15.373 8.13574 15.042 7.9541 14.7725C7.77832 14.5029 7.5498 14.2773 7.26855 14.0957C6.9873 13.9082 6.67676 13.7529 6.33691 13.6299C6.00293 13.5068 5.68066 13.3955 5.37012 13.2959C4.91895 13.1494 4.45898 12.9736 3.99023 12.7686C3.52734 12.5635 3.10254 12.3115 2.71582 12.0127C2.33496 11.7139 2.02148 11.3623 1.77539 10.958C1.53516 10.5479 1.41504 10.0674 1.41504 9.5166C1.41504 8.96582 1.53516 8.47363 1.77539 8.04004C2.02148 7.60645 2.34082 7.24023 2.7334 6.94141C3.12598 6.64258 3.57129 6.41699 4.06934 6.26465C4.56738 6.10645 5.06836 6.02734 5.57227 6.02734C6.12891 6.02734 6.66504 6.12109 7.18066 6.30859C7.69629 6.49023 8.15332 6.74805 8.55176 7.08203C8.9502 7.41602 9.26953 7.82031 9.50977 8.29492C9.75 8.76953 9.87598 9.2998 9.8877 9.88574H8.21777C8.1709 9.5166 8.08008 9.18262 7.94531 8.88379C7.81055 8.5791 7.63184 8.31836 7.40918 8.10156C7.18652 7.88477 6.91992 7.71777 6.60938 7.60059C6.30469 7.47754 5.95898 7.41602 5.57227 7.41602C5.26172 7.41602 4.95703 7.45996 4.6582 7.54785C4.36523 7.63574 4.10156 7.76758 3.86719 7.94336C3.63867 8.11914 3.4541 8.33594 3.31348 8.59375C3.17871 8.85156 3.11133 9.15039 3.11133 9.49023C3.11719 9.85938 3.21094 10.1729 3.39258 10.4307C3.57422 10.6826 3.80273 10.8965 4.07812 11.0723C4.35938 11.248 4.66113 11.3945 4.9834 11.5117C5.31152 11.6289 5.61914 11.7314 5.90625 11.8193C6.22266 11.9189 6.54199 12.0332 6.86426 12.1621C7.18652 12.2852 7.49707 12.4287 7.7959 12.5928C8.09473 12.7568 8.37305 12.9414 8.63086 13.1465C8.88867 13.3516 9.11426 13.5859 9.30762 13.8496C9.50098 14.1074 9.65039 14.3945 9.75586 14.7109C9.86719 15.0215 9.92285 15.3672 9.92285 15.748C9.92285 16.3223 9.79395 16.8232 9.53613 17.251C9.28418 17.6787 8.95605 18.0361 8.55176 18.3232C8.14746 18.6045 7.69043 18.8184 7.18066 18.9648C6.6709 19.1055 6.16113 19.1758 5.65137 19.1758C5.08301 19.1758 4.52637 19.0879 3.98145 18.9121C3.43652 18.7363 2.94727 18.4844 2.51367 18.1562C2.08594 17.8223 1.7373 17.418 1.46777 16.9434C1.19824 16.4629 1.05469 15.918 1.03711 15.3086H2.69824C2.75098 15.707 2.85938 16.0615 3.02344 16.3721C3.1875 16.6768 3.39844 16.9375 3.65625 17.1543C3.91406 17.3652 4.20996 17.5264 4.54395 17.6377C4.88379 17.7432 5.25293 17.7959 5.65137 17.7959C5.96777 17.7959 6.27832 17.7578 6.58301 17.6816C6.89355 17.5996 7.16895 17.4766 7.40918 17.3125C7.64941 17.1426 7.8457 16.9316 7.99805 16.6797C8.15039 16.4219 8.22656 16.1172 8.22656 15.7656ZM16.3916 17.8574C16.6846 17.8574 16.9688 17.8105 17.2441 17.7168C17.5254 17.623 17.7744 17.4941 17.9912 17.3301C18.208 17.1602 18.3809 16.9639 18.5098 16.7412C18.6445 16.5127 18.7148 16.2666 18.7207 16.0029H20.2588C20.2529 16.4248 20.1416 16.8291 19.9248 17.2158C19.7139 17.5967 19.4297 17.9336 19.0723 18.2266C18.7148 18.5137 18.3047 18.7451 17.8418 18.9209C17.3789 19.0908 16.8955 19.1758 16.3916 19.1758C15.6709 19.1758 15.041 19.0469 14.502 18.7891C13.9629 18.5312 13.5117 18.1855 13.1484 17.752C12.791 17.3125 12.5215 16.8086 12.3398 16.2402C12.1582 15.666 12.0674 15.0625 12.0674 14.4297V14.0605C12.0674 13.4336 12.1582 12.833 12.3398 12.2588C12.5215 11.6846 12.791 11.1807 13.1484 10.7471C13.5117 10.3076 13.9629 9.95898 14.502 9.70117C15.041 9.44336 15.6709 9.31445 16.3916 9.31445C16.9541 9.31445 17.4697 9.40527 17.9385 9.58691C18.4131 9.7627 18.8203 10.0059 19.1602 10.3164C19.5059 10.6211 19.7754 10.9844 19.9688 11.4062C20.1621 11.8281 20.2588 12.2793 20.2588 12.7598H18.7207C18.7148 12.4727 18.6504 12.2031 18.5273 11.9512C18.4102 11.6934 18.249 11.4678 18.0439 11.2744C17.8389 11.0811 17.5928 10.9287 17.3057 10.8174C17.0244 10.7061 16.7197 10.6504 16.3916 10.6504C15.8877 10.6504 15.4629 10.7529 15.1172 10.958C14.7773 11.1572 14.502 11.4209 14.291 11.749C14.0801 12.0713 13.9277 12.4346 13.834 12.8389C13.7461 13.2432 13.7021 13.6504 13.7021 14.0605V14.4297C13.7021 14.8457 13.7461 15.2588 13.834 15.6689C13.9277 16.0732 14.0771 16.4395 14.2822 16.7676C14.4932 17.0898 14.7686 17.3535 15.1084 17.5586C15.4541 17.7578 15.8818 17.8574 16.3916 17.8574ZM29.3818 9.31445C29.5342 9.31445 29.6924 9.32031 29.8564 9.33203C30.0205 9.33789 30.1758 9.35254 30.3223 9.37598C30.4746 9.39355 30.6123 9.41699 30.7354 9.44629C30.8643 9.47559 30.9697 9.50781 31.0518 9.54297L30.832 11.1338C30.5156 11.0635 30.2139 11.0137 29.9268 10.9844C29.6455 10.9492 29.3496 10.9316 29.0391 10.9316C28.2773 10.9316 27.6592 11.1045 27.1846 11.4502C26.7158 11.7959 26.3701 12.2793 26.1475 12.9004V19H24.5127V9.49023H26.0596L26.1387 11.002C26.5254 10.4805 26.9883 10.0703 27.5273 9.77148C28.0723 9.4668 28.6904 9.31445 29.3818 9.31445ZM33.5039 14.1572C33.5039 13.4717 33.6035 12.8359 33.8027 12.25C34.002 11.6582 34.2861 11.1455 34.6553 10.7119C35.0303 10.2783 35.4844 9.93848 36.0176 9.69238C36.5508 9.44043 37.1514 9.31445 37.8193 9.31445C38.4932 9.31445 39.0967 9.44043 39.6299 9.69238C40.1689 9.93848 40.623 10.2783 40.9922 10.7119C41.3672 11.1455 41.6543 11.6582 41.8535 12.25C42.0527 12.8359 42.1523 13.4717 42.1523 14.1572V14.3506C42.1523 15.0361 42.0527 15.6719 41.8535 16.2578C41.6543 16.8438 41.3672 17.3535 40.9922 17.7871C40.623 18.2207 40.1719 18.5605 39.6387 18.8066C39.1055 19.0527 38.5049 19.1758 37.8369 19.1758C37.1631 19.1758 36.5566 19.0527 36.0176 18.8066C35.4844 18.5605 35.0303 18.2207 34.6553 17.7871C34.2861 17.3535 34.002 16.8438 33.8027 16.2578C33.6035 15.6719 33.5039 15.0361 33.5039 14.3506V14.1572ZM35.1299 14.3506C35.1299 14.8193 35.1855 15.2676 35.2969 15.6953C35.4082 16.1172 35.5752 16.4893 35.7979 16.8115C36.0264 17.1338 36.3105 17.3887 36.6504 17.5762C36.9902 17.7637 37.3857 17.8574 37.8369 17.8574C38.2822 17.8574 38.6719 17.7637 39.0059 17.5762C39.3457 17.3887 39.627 17.1338 39.8496 16.8115C40.0781 16.4893 40.248 16.1172 40.3594 15.6953C40.4707 15.2676 40.5264 14.8193 40.5264 14.3506V14.1572C40.5264 13.6943 40.4678 13.252 40.3506 12.8301C40.2393 12.4023 40.0693 12.0273 39.8408 11.7051C39.6182 11.3828 39.3369 11.1279 38.9971 10.9404C38.6631 10.7471 38.2705 10.6504 37.8193 10.6504C37.3682 10.6504 36.9756 10.7471 36.6416 10.9404C36.3076 11.1279 36.0264 11.3828 35.7979 11.7051C35.5752 12.0273 35.4082 12.4023 35.2969 12.8301C35.1855 13.252 35.1299 13.6943 35.1299 14.1572V14.3506ZM45.0264 5.5H49.8867V17.5938H52.9893V19H45.0264V17.5938H48.2607V6.91504H45.0264V5.5ZM55.8369 5.5H60.6973V17.5938H63.7998V19H55.8369V17.5938H59.0713V6.91504H55.8369V5.5ZM76.8955 14.166C76.8955 13.457 76.9834 12.8066 77.1592 12.2148C77.3408 11.6172 77.5957 11.1045 77.9238 10.6768C78.2578 10.249 78.6592 9.91504 79.1279 9.6748C79.5967 9.43457 80.1211 9.31445 80.7012 9.31445C81.2695 9.31445 81.7646 9.41113 82.1865 9.60449C82.6143 9.79199 82.9834 10.0674 83.2939 10.4307V5.5H84.9199V19H83.4258L83.3555 17.998C83.0391 18.3848 82.6611 18.6777 82.2217 18.877C81.7822 19.0762 81.2695 19.1758 80.6836 19.1758C80.1094 19.1758 79.5879 19.0527 79.1191 18.8066C78.6562 18.5605 78.2607 18.2207 77.9326 17.7871C77.6045 17.3535 77.3496 16.8438 77.168 16.2578C76.9863 15.666 76.8955 15.0303 76.8955 14.3506V14.166ZM78.5215 14.3506C78.5215 14.8135 78.5713 15.2529 78.6709 15.6689C78.7705 16.085 78.9229 16.4512 79.1279 16.7676C79.3389 17.084 79.6055 17.3359 79.9277 17.5234C80.25 17.7051 80.6367 17.7959 81.0879 17.7959C81.3633 17.7959 81.6123 17.7637 81.835 17.6992C82.0576 17.6348 82.2598 17.5439 82.4414 17.4268C82.623 17.3037 82.7842 17.1602 82.9248 16.9961C83.0654 16.8262 83.1885 16.6387 83.2939 16.4336V12.0215C83.083 11.6348 82.7988 11.3184 82.4414 11.0723C82.084 10.8203 81.6387 10.6943 81.1055 10.6943C80.6484 10.6943 80.2559 10.7881 79.9277 10.9756C79.6055 11.1631 79.3389 11.418 79.1279 11.7402C78.9229 12.0566 78.7705 12.4258 78.6709 12.8477C78.5713 13.2637 78.5215 13.7031 78.5215 14.166V14.3506ZM87.5566 14.1572C87.5566 13.4717 87.6562 12.8359 87.8555 12.25C88.0547 11.6582 88.3389 11.1455 88.708 10.7119C89.083 10.2783 89.5371 9.93848 90.0703 9.69238C90.6035 9.44043 91.2041 9.31445 91.8721 9.31445C92.5459 9.31445 93.1494 9.44043 93.6826 9.69238C94.2217 9.93848 94.6758 10.2783 95.0449 10.7119C95.4199 11.1455 95.707 11.6582 95.9062 12.25C96.1055 12.8359 96.2051 13.4717 96.2051 14.1572V14.3506C96.2051 15.0361 96.1055 15.6719 95.9062 16.2578C95.707 16.8438 95.4199 17.3535 95.0449 17.7871C94.6758 18.2207 94.2246 18.5605 93.6914 18.8066C93.1582 19.0527 92.5576 19.1758 91.8896 19.1758C91.2158 19.1758 90.6094 19.0527 90.0703 18.8066C89.5371 18.5605 89.083 18.2207 88.708 17.7871C88.3389 17.3535 88.0547 16.8438 87.8555 16.2578C87.6562 15.6719 87.5566 15.0361 87.5566 14.3506V14.1572ZM89.1826 14.3506C89.1826 14.8193 89.2383 15.2676 89.3496 15.6953C89.4609 16.1172 89.6279 16.4893 89.8506 16.8115C90.0791 17.1338 90.3633 17.3887 90.7031 17.5762C91.043 17.7637 91.4385 17.8574 91.8896 17.8574C92.335 17.8574 92.7246 17.7637 93.0586 17.5762C93.3984 17.3887 93.6797 17.1338 93.9023 16.8115C94.1309 16.4893 94.3008 16.1172 94.4121 15.6953C94.5234 15.2676 94.5791 14.8193 94.5791 14.3506V14.1572C94.5791 13.6943 94.5205 13.252 94.4033 12.8301C94.292 12.4023 94.1221 12.0273 93.8936 11.7051C93.6709 11.3828 93.3896 11.1279 93.0498 10.9404C92.7158 10.7471 92.3232 10.6504 91.8721 10.6504C91.4209 10.6504 91.0283 10.7471 90.6943 10.9404C90.3604 11.1279 90.0791 11.3828 89.8506 11.7051C89.6279 12.0273 89.4609 12.4023 89.3496 12.8301C89.2383 13.252 89.1826 13.6943 89.1826 14.1572V14.3506ZM100.266 15.5547L100.459 16.917L100.696 15.5547L102.217 9.49023H103.263L104.774 15.5547L105.029 17.0488L105.267 15.5547L106.321 9.49023H107.763L105.741 19H104.458L102.973 13.1729L102.727 11.6963L102.489 13.1729L101.021 19H99.7383L97.7168 9.49023H99.1582L100.266 15.5547ZM111.094 9.49023L111.208 10.8965C111.554 10.4043 111.979 10.0205 112.482 9.74512C112.986 9.46387 113.549 9.32031 114.17 9.31445C114.668 9.31445 115.119 9.38477 115.523 9.52539C115.934 9.66602 116.282 9.88574 116.569 10.1846C116.856 10.4834 117.076 10.8643 117.229 11.3271C117.387 11.7842 117.466 12.3291 117.466 12.9619V19H115.84V12.9971C115.84 12.5752 115.793 12.2178 115.699 11.9248C115.605 11.6318 115.465 11.3945 115.277 11.2129C115.096 11.0312 114.87 10.8994 114.601 10.8174C114.337 10.7354 114.032 10.6943 113.687 10.6943C113.142 10.6943 112.661 10.832 112.245 11.1074C111.835 11.377 111.507 11.7344 111.261 12.1797V19H109.635V9.49023H111.094Z" fill="#070707"/>
<path d="M63.6464 77.3536C63.8417 77.5488 64.1583 77.5488 64.3536 77.3536L67.5355 74.1716C67.7308 73.9763 67.7308 73.6597 67.5355 73.4645C67.3403 73.2692 67.0237 73.2692 66.8284 73.4645L64 76.2929L61.1716 73.4645C60.9763 73.2692 60.6597 73.2692 60.4645 73.4645C60.2692 73.6597 60.2692 73.9763 60.4645 74.1716L63.6464 77.3536ZM63.5 38L63.5 77L64.5 77L64.5 38L63.5 38Z" fill="#0A0606"/>
</svg>
